<?xml version="1.0" encoding="UTF-8"?>
<!DOCTYPE svg PUBLIC "-//W3C//DTD SVG 1.1//EN" "http://www.w3.org/Graphics/SVG/1.1/DTD/svg11.dtd">
<!-- Creator: CorelDRAW -->
<svg xmlns="http://www.w3.org/2000/svg" xml:space="preserve" width="68mm" height="58mm" version="1.1" style="shape-rendering:geometricPrecision; text-rendering:geometricPrecision; image-rendering:optimizeQuality; fill-rule:evenodd; clip-rule:evenodd"
viewBox="0 0 6800 5800"
 xmlns:xlink="http://www.w3.org/1999/xlink"
 xmlns:xodm="http://www.corel.com/coreldraw/odm/2003">
 <defs>
  <style type="text/css">
   <![CDATA[
    .str0 {stroke:#B51616;stroke-width:211.67;stroke-miterlimit:22.9256}
    .fil0 {fill:none}
   ]]>
  </style>
 </defs>
 <g id="Layer_x0020_1">
  <metadata id="CorelCorpID_0Corel-Layer"/>
  <path class="fil0 str0" d="M5917.52 3088.79c9.09,-40.39 9.84,-337.73 15.37,-379.34 33.83,-253.01 159.68,-349.44 242.52,-729.25 49.48,-226.87 145.62,-269.41 89.4,-487.38 -54.82,-212.44 -112.74,-781.54 -236.25,-1047.39 -95.95,-7.5 -367.62,5.81 -460.3,68.87 -157.99,107.4 -777.04,386.28 -883.3,506.79 -60.26,67.94 -46.67,98.3 -119.95,149.84 -68.13,-94.09 -131.2,-333.8 -362.94,-214.78 -57.91,29.61 -102.7,135.59 -114.61,190.98 -32.7,150.77 35.05,83.58 105.52,162.68 126.32,141.68 -36.45,478.29 517.28,723.62 -28.21,101.11 -52.48,135.13 -99.43,221.06 -148.9,272.41 -72.81,147.97 -281.5,330.51l-336.79 272.61c-258.17,87.05 -437.44,243.45 -542.21,-116.48 308.59,-279.17 25.68,-215.26 -190.7,-469.4 -68.59,-80.77 -118.82,-93.61 -202.88,-134 -76.56,-36.64 1.88,1.4 -67.94,-40.11 -251.42,-149.37 -235.49,-216.84 -541.08,-31.77 -194.63,117.89 -177.86,88.75 -252.54,-25.02l-347.29 16.59c-76.09,-7.5 -45.54,-28.68 -113.67,-33.83l-144.69 50.42c49.01,259.1 119.29,109.45 -105.98,276.63 -71.22,52.76 12.84,12.18 -83.31,68.12 -218.91,-188.82 -78.15,-320.95 -67.47,-444.18 -22.87,-24.27 -39.64,-32.89 -59.51,-49.29l-47.13 -39.45c-123.7,-132.13 -138.41,-264.26 -367.44,-296.22 -90.52,129.79 -180.2,362.47 -260.51,517.28l-77.03 176.73c-34.58,100.65 -86.87,129.98 -144.69,180.68 38.99,112.26 124.92,304.37 210.57,395.64 3.93,4.22 10.31,9.56 14.43,13.31 141.69,136.06 80.5,236.89 361.34,583.52 165.49,204.29 37.58,277.57 286.38,491.79 98.49,85 415.69,229.5 591.96,172.24l14.25 -199.6c23.61,71.41 33.64,117.42 87.52,168.96 38.52,36.92 11.43,7.68 46.01,37.39 4.22,3.75 10.5,8.9 14.72,12.37 64,55.75 -21.46,61.19 91.74,78.15 169.24,-18.93 83.12,-86.12 300.9,-50.23 -118.36,37.39 -283.57,53.7 -382.34,126.51 -3.28,-10.78 -13.77,-49.01 -18.46,-59.04 -18.93,-41.32 -17.71,-31.3 -39.17,-58.1 -222.93,68.41 -132.6,77.97 -406.89,75.63 0.66,70 116.95,690.73 139.16,758.39 312.52,-36.92 383.74,181.14 851.54,319.83 163.15,48.35 81.25,100.64 250.21,141.03l475.67 -225.28c37.86,-31.76 34.58,-39.92 94.27,-72.62 214.78,-117.61 35.98,-89.87 192.1,-186.48"/>
 </g>
</svg>
